<svg width="125" height="25" viewBox="0 0 125 25" fill="none" xmlns="http://www.w3.org/2000/svg">
<path d="M0.2 24V1.285H10.805V2.685H1.81V10.945H9.93V12.31H1.81V22.53H11.155V24H0.2ZM17.5975 24V1.145H18.3675L33.2775 18.295C33.8141 18.9017 34.3041 19.5083 34.7475 20.115C35.2141 20.6983 35.4591 21.0017 35.4825 21.025C35.4358 20.465 35.4125 19.3683 35.4125 17.735V1.285H37.0225V24.14H36.2525L21.0625 6.71L19.1375 4.365C19.1841 4.83167 19.2075 5.92833 19.2075 7.655V24H17.5975ZM45.4197 24V1.39C47.4264 1.22667 49.1297 1.145 50.5297 1.145C52.6764 1.145 54.4497 1.705 55.8497 2.825C57.2497 3.92167 57.9497 5.49667 57.9497 7.55C57.9497 8.92667 57.5531 10.1983 56.7597 11.365C55.9664 12.5317 55.0681 13.4767 54.0647 14.2C56.8414 17.8867 58.5564 20.0917 59.2097 20.815C60.5397 22.1917 61.9864 22.9733 63.5497 23.16L63.5147 24.245C62.2081 24.2217 61.1464 24.035 60.3297 23.685C59.5131 23.3117 58.6964 22.6933 57.8797 21.83C57.0864 20.9667 55.3247 18.645 52.5947 14.865C50.7047 14.865 48.8497 14.8067 47.0297 14.69V24H45.4197ZM51.7197 13.535C52.6297 13.535 53.6097 12.9283 54.6597 11.715C55.7097 10.5017 56.2347 9.09 56.2347 7.48C56.2347 5.87 55.6864 4.645 54.5897 3.805C53.4931 2.965 52.0697 2.545 50.3197 2.545C49.3864 2.545 48.2897 2.59167 47.0297 2.685V13.36C48.7097 13.4767 50.2731 13.535 51.7197 13.535ZM68.6882 16.125L65.4332 24H63.7882L73.3082 1.145H74.2532L83.8432 24H82.0582L78.7682 16.125H68.6882ZM73.6932 3.735C73.3432 4.785 73.0282 5.66 72.7482 6.36L69.2482 14.76H78.2082L74.7432 6.395C74.2065 5.08833 73.8565 4.20167 73.6932 3.735ZM97.5268 2.37C94.9368 2.37 92.7551 3.36167 90.9818 5.345C89.2318 7.305 88.3568 9.72 88.3568 12.59C88.3568 15.46 89.3485 17.8983 91.3318 19.905C93.3151 21.8883 95.6485 22.88 98.3318 22.88C101.038 22.88 103.138 22.565 104.632 21.935V12.59H106.242V22.67C104.422 23.79 101.843 24.35 98.5068 24.35C95.1701 24.35 92.3585 23.2183 90.0718 20.955C87.7851 18.6917 86.6418 15.915 86.6418 12.625C86.6418 9.31167 87.6685 6.535 89.7218 4.295C91.7985 2.055 94.4701 0.934999 97.7368 0.934999C100.373 0.934999 102.952 1.34333 105.472 2.16L105.052 3.49C102.625 2.74333 100.117 2.37 97.5268 2.37ZM113.882 24V1.285H124.487V2.685H115.492V10.945H123.612V12.31H115.492V22.53H124.837V24H113.882Z" fill="white"/>
</svg>
