<svg width="79" height="79" viewBox="0 0 79 79" fill="none" xmlns="http://www.w3.org/2000/svg">
<path d="M11.5205 14.8125H16.6505C18.9406 14.8125 20.0856 14.8125 20.9477 15.4338C21.8097 16.0552 22.1718 17.1415 22.896 19.314L24.6872 24.6875" stroke="white" stroke-width="3.29167" stroke-linecap="round"/>
<path d="M57.6039 57.6041H26.5006C26.0194 57.6041 25.7788 57.6041 25.5962 57.5837C23.6621 57.3671 22.3371 55.5287 22.7433 53.6255C22.7816 53.4458 22.8577 53.2177 23.0099 52.7611C23.1789 52.2542 23.2633 52.0007 23.3567 51.7772C24.3122 49.4875 26.4738 47.9293 28.9482 47.7469C29.1899 47.7291 29.457 47.7291 29.9913 47.7291H47.7289" stroke="white" stroke-width="3.29167" stroke-linecap="round" stroke-linejoin="round"/>
<path d="M46.6717 47.7292H36.6614C32.4505 47.7292 30.3452 47.7292 28.6962 46.6419C27.0473 45.5547 26.218 43.6195 24.5592 39.7492L24.0035 38.4526C21.339 32.2351 20.0067 29.1264 21.4702 26.9069C22.9336 24.6875 26.3158 24.6875 33.08 24.6875H50.463C58.0305 24.6875 61.8143 24.6875 63.2416 27.1467C64.6688 29.606 62.7913 32.8913 59.0368 39.4618L58.1036 41.0951C56.2537 44.3318 55.3291 45.9504 53.7965 46.8398C52.2639 47.7292 50.3998 47.7292 46.6717 47.7292Z" stroke="white" stroke-width="3.29167" stroke-linecap="round"/>
<path d="M55.9577 69.125C57.7756 69.125 59.2493 67.6512 59.2493 65.8333C59.2493 64.0154 57.7756 62.5416 55.9577 62.5416C54.1397 62.5416 52.666 64.0154 52.666 65.8333C52.666 67.6512 54.1397 69.125 55.9577 69.125Z" fill="white" stroke="white" stroke-width="3.29167"/>
<path d="M29.6247 69.125C31.4426 69.125 32.9163 67.6512 32.9163 65.8333C32.9163 64.0154 31.4426 62.5416 29.6247 62.5416C27.8067 62.5416 26.333 64.0154 26.333 65.8333C26.333 67.6512 27.8067 69.125 29.6247 69.125Z" fill="white" stroke="white" stroke-width="3.29167"/>
</svg>
