<svg width="247" height="247" viewBox="0 0 247 247" fill="none" xmlns="http://www.w3.org/2000/svg">
<g clip-path="url(#clip0_41_13)">
<path d="M51.0161 143.641L155.75 38.9073C160.188 34.469 167.4 34.469 171.863 38.9073L228.234 95.2783C232.672 99.7166 232.672 106.929 228.234 111.391L131.556 208.069C127.118 212.507 119.906 212.507 115.444 208.069L51.0161 143.641Z" fill="#FFEA00" stroke="black" stroke-width="0.008"/>
<path d="M115.444 208.069L18.7662 111.415C14.3279 106.977 14.3279 99.7649 18.7662 95.3025L75.1372 38.9315C79.5755 34.4932 86.7877 34.4932 91.2501 38.9315L187.927 135.609C192.366 140.047 192.366 147.259 187.927 151.722L131.556 208.069C127.094 212.531 119.906 212.531 115.444 208.069Z" fill="#536DFE" stroke="black" stroke-width="0.008"/>
<path d="M83.2178 175.867L18.7662 111.415C14.3279 106.977 14.3279 99.7649 18.7662 95.3025L75.1372 38.9315C79.5755 34.4932 86.7877 34.4932 91.2501 38.9315L187.927 135.609L83.2178 175.867Z" fill="#3D5AFE" stroke="black" stroke-width="0.008"/>
<path d="M71.1089 83.1935C68.8898 80.9744 68.8898 77.3562 71.1089 75.1371L99.21 47.036C112.597 33.6488 134.282 33.6488 147.669 47.036L111.512 83.1935C100.344 94.3375 82.2529 94.3375 71.1089 83.1935Z" fill="#FFEA00" stroke="black" stroke-width="0.008"/>
</g>
<defs>
<clipPath id="clip0_41_13">
<rect width="247" height="247" fill="white"/>
</clipPath>
</defs>
</svg>
